<mxfile host="app.diagrams.net" modified="2023-04-24T08:24:42.459Z" agent="Mozilla/5.0 (Windows NT 10.0; WOW64) AppleWebKit/537.36 (KHTML, like Gecko) Chrome/86.0.4240.198 Safari/537.36" etag="82GrhZqPozCjYkZAx3hb" version="21.2.1" type="github" pages="2">
  <diagram name="第 1 页" id="qi0rJrt5ztn0awUAt43X">
    <mxGraphModel dx="1434" dy="798" grid="1" gridSize="10" guides="1" tooltips="1" connect="1" arrows="1" fold="1" page="1" pageScale="1" pageWidth="827" pageHeight="1169" math="0" shadow="0">
      <root>
        <mxCell id="0" />
        <mxCell id="1" parent="0" />
        <mxCell id="eZLzI9LDEeXyO6Q2ztoj-1" value="&lt;font style=&quot;font-size: 24px;&quot;&gt;sdaf adf a as&lt;/font&gt;" style="ellipse;whiteSpace=wrap;html=1;" parent="1" vertex="1">
          <mxGeometry x="70" y="90" width="250" height="130" as="geometry" />
        </mxCell>
        <mxCell id="b9_gB6JFFlOojiMxknoL-1" value="" style="ellipse;shape=doubleEllipse;whiteSpace=wrap;html=1;aspect=fixed;" parent="1" vertex="1">
          <mxGeometry x="414" y="115" width="80" height="80" as="geometry" />
        </mxCell>
      </root>
    </mxGraphModel>
  </diagram>
  <diagram id="fYtNih3z4ZNUpqcYyWn7" name="第 2 页">
    <mxGraphModel dx="1434" dy="748" grid="1" gridSize="10" guides="1" tooltips="1" connect="1" arrows="1" fold="1" page="1" pageScale="1" pageWidth="827" pageHeight="1169" math="0" shadow="0">
      <root>
        <mxCell id="0" />
        <mxCell id="1" parent="0" />
      </root>
    </mxGraphModel>
  </diagram>
</mxfile>
